<svg width="212" height="283" viewBox="0 0 212 283" fill="none" xmlns="http://www.w3.org/2000/svg">
<path d="M28.11 267.53C28.11 265.49 28.58 263.66 29.52 262.04C30.48 260.42 31.77 259.16 33.39 258.26C35.03 257.34 36.82 256.88 38.76 256.88C40.98 256.88 42.95 257.43 44.67 258.53C46.41 259.61 47.67 261.15 48.45 263.15H44.34C43.8 262.05 43.05 261.23 42.09 260.69C41.13 260.15 40.02 259.88 38.76 259.88C37.38 259.88 36.15 260.19 35.07 260.81C33.99 261.43 33.14 262.32 32.52 263.48C31.92 264.64 31.62 265.99 31.62 267.53C31.62 269.07 31.92 270.42 32.52 271.58C33.14 272.74 33.99 273.64 35.07 274.28C36.15 274.9 37.38 275.21 38.76 275.21C40.02 275.21 41.13 274.94 42.09 274.4C43.05 273.86 43.8 273.04 44.34 271.94H48.45C47.67 273.94 46.41 275.48 44.67 276.56C42.95 277.64 40.98 278.18 38.76 278.18C36.8 278.18 35.01 277.73 33.39 276.83C31.77 275.91 30.48 274.64 29.52 273.02C28.58 271.4 28.11 269.57 28.11 267.53ZM51.3131 269.66C51.3131 268 51.6531 266.53 52.3331 265.25C53.0331 263.97 53.9731 262.98 55.1531 262.28C56.3531 261.56 57.6731 261.2 59.1131 261.2C60.4131 261.2 61.5431 261.46 62.5031 261.98C63.4831 262.48 64.2631 263.11 64.8431 263.87V261.47H68.2931V278H64.8431V275.54C64.2631 276.32 63.4731 276.97 62.4731 277.49C61.4731 278.01 60.3331 278.27 59.0531 278.27C57.6331 278.27 56.3331 277.91 55.1531 277.19C53.9731 276.45 53.0331 275.43 52.3331 274.13C51.6531 272.81 51.3131 271.32 51.3131 269.66ZM64.8431 269.72C64.8431 268.58 64.6031 267.59 64.1231 266.75C63.6631 265.91 63.0531 265.27 62.2931 264.83C61.5331 264.39 60.7131 264.17 59.8331 264.17C58.9531 264.17 58.1331 264.39 57.3731 264.83C56.6131 265.25 55.9931 265.88 55.5131 266.72C55.0531 267.54 54.8231 268.52 54.8231 269.66C54.8231 270.8 55.0531 271.8 55.5131 272.66C55.9931 273.52 56.6131 274.18 57.3731 274.64C58.1531 275.08 58.9731 275.3 59.8331 275.3C60.7131 275.3 61.5331 275.08 62.2931 274.64C63.0531 274.2 63.6631 273.56 64.1231 272.72C64.6031 271.86 64.8431 270.86 64.8431 269.72ZM76.2052 255.8V278H72.7852V255.8H76.2052ZM79.5553 269.72C79.5553 268.02 79.8953 266.53 80.5753 265.25C81.2753 263.95 82.2353 262.95 83.4553 262.25C84.6753 261.55 86.0753 261.2 87.6553 261.2C89.6553 261.2 91.3053 261.68 92.6053 262.64C93.9253 263.58 94.8153 264.93 95.2753 266.69H91.5853C91.2853 265.87 90.8053 265.23 90.1453 264.77C89.4853 264.31 88.6553 264.08 87.6553 264.08C86.2553 264.08 85.1353 264.58 84.2953 265.58C83.4753 266.56 83.0653 267.94 83.0653 269.72C83.0653 271.5 83.4753 272.89 84.2953 273.89C85.1353 274.89 86.2553 275.39 87.6553 275.39C89.6353 275.39 90.9453 274.52 91.5853 272.78H95.2753C94.7953 274.46 93.8953 275.8 92.5753 276.8C91.2553 277.78 89.6153 278.27 87.6553 278.27C86.0753 278.27 84.6753 277.92 83.4553 277.22C82.2353 276.5 81.2753 275.5 80.5753 274.22C79.8953 272.92 79.5553 271.42 79.5553 269.72ZM113.654 261.47V278H110.234V276.05C109.694 276.73 108.984 277.27 108.104 277.67C107.244 278.05 106.324 278.24 105.344 278.24C104.044 278.24 102.874 277.97 101.834 277.43C100.814 276.89 100.004 276.09 99.4036 275.03C98.8236 273.97 98.5336 272.69 98.5336 271.19V261.47H101.924V270.68C101.924 272.16 102.294 273.3 103.034 274.1C103.774 274.88 104.784 275.27 106.064 275.27C107.344 275.27 108.354 274.88 109.094 274.1C109.854 273.3 110.234 272.16 110.234 270.68V261.47H113.654ZM121.586 255.8V278H118.166V255.8H121.586ZM124.936 269.66C124.936 268 125.276 266.53 125.956 265.25C126.656 263.97 127.596 262.98 128.776 262.28C129.976 261.56 131.296 261.2 132.736 261.2C134.036 261.2 135.166 261.46 136.126 261.98C137.106 262.48 137.886 263.11 138.466 263.87V261.47H141.916V278H138.466V275.54C137.886 276.32 137.096 276.97 136.096 277.49C135.096 278.01 133.956 278.27 132.676 278.27C131.256 278.27 129.956 277.91 128.776 277.19C127.596 276.45 126.656 275.43 125.956 274.13C125.276 272.81 124.936 271.32 124.936 269.66ZM138.466 269.72C138.466 268.58 138.226 267.59 137.746 266.75C137.286 265.91 136.676 265.27 135.916 264.83C135.156 264.39 134.336 264.17 133.456 264.17C132.576 264.17 131.756 264.39 130.996 264.83C130.236 265.25 129.616 265.88 129.136 266.72C128.676 267.54 128.446 268.52 128.446 269.66C128.446 270.8 128.676 271.8 129.136 272.66C129.616 273.52 130.236 274.18 130.996 274.64C131.776 275.08 132.596 275.3 133.456 275.3C134.336 275.3 135.156 275.08 135.916 274.64C136.676 274.2 137.286 273.56 137.746 272.72C138.226 271.86 138.466 270.86 138.466 269.72ZM150.398 264.26V273.41C150.398 274.03 150.538 274.48 150.818 274.76C151.118 275.02 151.618 275.15 152.318 275.15H154.418V278H151.718C150.178 278 148.998 277.64 148.178 276.92C147.358 276.2 146.948 275.03 146.948 273.41V264.26H144.998V261.47H146.948V257.36H150.398V261.47H154.418V264.26H150.398ZM164.74 278.27C163.18 278.27 161.77 277.92 160.51 277.22C159.25 276.5 158.26 275.5 157.54 274.22C156.82 272.92 156.46 271.42 156.46 269.72C156.46 268.04 156.83 266.55 157.57 265.25C158.31 263.95 159.32 262.95 160.6 262.25C161.88 261.55 163.31 261.2 164.89 261.2C166.47 261.2 167.9 261.55 169.18 262.25C170.46 262.95 171.47 263.95 172.21 265.25C172.95 266.55 173.32 268.04 173.32 269.72C173.32 271.4 172.94 272.89 172.18 274.19C171.42 275.49 170.38 276.5 169.06 277.22C167.76 277.92 166.32 278.27 164.74 278.27ZM164.74 275.3C165.62 275.3 166.44 275.09 167.2 274.67C167.98 274.25 168.61 273.62 169.09 272.78C169.57 271.94 169.81 270.92 169.81 269.72C169.81 268.52 169.58 267.51 169.12 266.69C168.66 265.85 168.05 265.22 167.29 264.8C166.53 264.38 165.71 264.17 164.83 264.17C163.95 264.17 163.13 264.38 162.37 264.8C161.63 265.22 161.04 265.85 160.6 266.69C160.16 267.51 159.94 268.52 159.94 269.72C159.94 271.5 160.39 272.88 161.29 273.86C162.21 274.82 163.36 275.3 164.74 275.3ZM180.121 263.87C180.621 263.03 181.281 262.38 182.101 261.92C182.941 261.44 183.931 261.2 185.071 261.2V264.74H184.201C182.861 264.74 181.841 265.08 181.141 265.76C180.461 266.44 180.121 267.62 180.121 269.3V278H176.701V261.47H180.121V263.87Z" fill="white"/>
<ellipse cx="106" cy="104.5" rx="106" ry="104.5" fill="white"/>
<path d="M91.4286 70.5714H73.5714V88.4286C73.5714 89.3758 73.1952 90.2842 72.5254 90.954C71.8556 91.6237 70.9472 92 70 92C69.0528 92 68.1444 91.6237 67.4746 90.954C66.8048 90.2842 66.4286 89.3758 66.4286 88.4286V70.5714H48.5714C47.6242 70.5714 46.7158 70.1952 46.046 69.5254C45.3763 68.8556 45 67.9472 45 67C45 66.0528 45.3763 65.1444 46.046 64.4746C46.7158 63.8048 47.6242 63.4286 48.5714 63.4286H66.4286V45.5714C66.4286 44.6242 66.8048 43.7158 67.4746 43.046C68.1444 42.3763 69.0528 42 70 42C70.9472 42 71.8556 42.3763 72.5254 43.046C73.1952 43.7158 73.5714 44.6242 73.5714 45.5714V63.4286H91.4286C92.3758 63.4286 93.2842 63.8048 93.954 64.4746C94.6237 65.1444 95 66.0528 95 67C95 67.9472 94.6237 68.8556 93.954 69.5254C93.2842 70.1952 92.3758 70.5714 91.4286 70.5714Z" fill="#1F1F1F"/>
<path d="M166.429 70.1429H123.571C122.624 70.1429 121.716 69.7666 121.046 69.0968C120.376 68.427 120 67.5186 120 66.5714C120 65.6242 120.376 64.7158 121.046 64.046C121.716 63.3763 122.624 63 123.571 63H166.429C167.376 63 168.284 63.3763 168.954 64.046C169.624 64.7158 170 65.6242 170 66.5714C170 67.5186 169.624 68.427 168.954 69.0968C168.284 69.7666 167.376 70.1429 166.429 70.1429Z" fill="#1F1F1F"/>
<path d="M170.944 137.5C170.944 138.716 170.462 139.881 169.602 140.741C168.742 141.6 167.577 142.083 166.361 142.083H126.639C125.423 142.083 124.258 141.6 123.398 140.741C122.538 139.881 122.056 138.716 122.056 137.5C122.056 136.284 122.538 135.119 123.398 134.259C124.258 133.4 125.423 132.917 126.639 132.917H166.361C167.577 132.917 168.742 133.4 169.602 134.259C170.462 135.119 170.944 136.284 170.944 137.5Z" fill="#1F1F1F"/>
<path d="M146.5 126.806C149.875 126.806 152.611 124.07 152.611 120.694C152.611 117.319 149.875 114.583 146.5 114.583C143.125 114.583 140.389 117.319 140.389 120.694C140.389 124.07 143.125 126.806 146.5 126.806Z" fill="#1F1F1F"/>
<path d="M146.5 160.417C149.875 160.417 152.611 157.681 152.611 154.306C152.611 150.93 149.875 148.194 146.5 148.194C143.125 148.194 140.389 150.93 140.389 154.306C140.389 157.681 143.125 160.417 146.5 160.417Z" fill="#1F1F1F"/>
<path d="M95.9499 154.89C96.2828 155.221 96.5469 155.615 96.727 156.049C96.9072 156.483 97 156.949 97 157.418C97 157.888 96.9072 158.354 96.727 158.788C96.5469 159.222 96.2828 159.616 95.9499 159.947C95.2762 160.612 94.3677 160.985 93.4211 160.985C92.4744 160.985 91.5659 160.612 90.8922 159.947L72 141.055L53.1078 159.947C52.4341 160.612 51.5256 160.985 50.5789 160.985C49.6323 160.985 48.7238 160.612 48.0501 159.947C47.7172 159.616 47.4531 159.222 47.273 158.788C47.0928 158.354 47 157.888 47 157.418C47 156.949 47.0928 156.483 47.273 156.049C47.4531 155.615 47.7172 155.221 48.0501 154.89L66.9422 135.997L48.0501 117.105C47.3794 116.435 47.0026 115.525 47.0026 114.576C47.0026 114.107 47.0951 113.642 47.2748 113.208C47.4545 112.774 47.718 112.38 48.0501 112.047C48.3822 111.715 48.7764 111.452 49.2103 111.272C49.6442 111.093 50.1093 111 50.5789 111C51.5275 111 52.4371 111.377 53.1078 112.047L72 130.94L90.8922 112.047C91.5629 111.377 92.4725 111 93.4211 111C94.3696 111 95.2792 111.377 95.9499 112.047C96.6206 112.718 96.9974 113.628 96.9974 114.576C96.9974 115.525 96.6206 116.435 95.9499 117.105L77.0577 135.997L95.9499 154.89Z" fill="#1F1F1F"/>
<line x1="4" y1="235.5" x2="204.01" y2="235.5" stroke="white"/>
</svg>
